<svg width="1500" height="2000" viewBox="0 0 1500 2000" xmlns="http://www.w3.org/2000/svg" role="img" aria-labelledby="title desc">
  <title id="title">Michigan atlas map with celebration markers</title>
  <desc id="desc">A dark illustrated atlas map of Michigan surrounded by Great Lakes water and glowing gold markers.</desc>
  <defs>
    <linearGradient id="water" x1="0" y1="0" x2="1" y2="1"><stop stop-color="#06111a"/><stop offset=".45" stop-color="#0a3340"/><stop offset="1" stop-color="#02070b"/></linearGradient>
    <linearGradient id="land" x1="0" y1="0" x2="1" y2="1"><stop stop-color="#9b8539"/><stop offset=".33" stop-color="#2f6a34"/><stop offset=".68" stop-color="#183f2c"/><stop offset="1" stop-color="#bc8c42"/></linearGradient>
    <filter id="glow"><feGaussianBlur stdDeviation="10" result="b"/><feMerge><feMergeNode in="b"/><feMergeNode in="SourceGraphic"/></feMerge></filter>
    <filter id="shadow"><feDropShadow dx="0" dy="24" stdDeviation="26" flood-color="#000" flood-opacity=".75"/></filter>
    <pattern id="waves" width="120" height="90" patternUnits="userSpaceOnUse"><path d="M0 40c30-22 60 22 90 0M20 70c26-18 52 18 78 0" fill="none" stroke="#7bd4cf" stroke-opacity=".13" stroke-width="2"/></pattern>
    <pattern id="trees" width="54" height="54" patternUnits="userSpaceOnUse"><path d="M12 34l9-20 9 20zM36 39l7-16 8 16z" fill="#0b2f21" opacity=".88"/><circle cx="18" cy="14" r="3" fill="#d29b41" opacity=".6"/></pattern>
  </defs>
  <rect width="1500" height="2000" fill="url(#water)"/>
  <rect width="1500" height="2000" fill="url(#waves)"/>
  <g opacity=".7" stroke="#efbf72" stroke-width="1" fill="none"><path d="M120 240C310 350 500 310 690 445S1080 555 1330 430"/><path d="M170 1510C420 1370 590 1500 810 1365S1120 1280 1370 1390"/><path d="M80 980c260-70 410 80 640-10s360-220 700-100"/></g>
  <g filter="url(#shadow)">
    <path d="M230 415 C330 305 490 315 610 390 C710 455 845 420 980 360 C1110 305 1260 360 1320 465 C1195 505 1070 530 930 522 C785 515 692 585 560 585 C430 585 320 520 230 415Z" fill="url(#land)" stroke="#d7a454" stroke-width="7"/>
    <path d="M520 725 C640 665 795 700 865 810 C945 935 1030 1022 1124 1068 C1240 1125 1272 1260 1185 1348 C1116 1418 1095 1540 1164 1632 C1010 1718 825 1682 745 1570 C655 1444 525 1430 415 1345 C312 1266 330 1132 414 1062 C480 1006 470 902 430 820 C454 785 486 752 520 725Z" fill="url(#land)" stroke="#d7a454" stroke-width="8"/>
    <path d="M1060 1180 C1194 1120 1336 1188 1370 1325 C1402 1452 1320 1548 1200 1540 C1086 1533 1018 1458 1032 1355 C1040 1288 1018 1230 1060 1180Z" fill="url(#land)" stroke="#d7a454" stroke-width="7"/>
  </g>
  <g opacity=".55"><path d="M230 415 C330 305 490 315 610 390 C710 455 845 420 980 360 C1110 305 1260 360 1320 465 C1195 505 1070 530 930 522 C785 515 692 585 560 585 C430 585 320 520 230 415Z" fill="url(#trees)"/><path d="M520 725 C640 665 795 700 865 810 C945 935 1030 1022 1124 1068 C1240 1125 1272 1260 1185 1348 C1116 1418 1095 1540 1164 1632 C1010 1718 825 1682 745 1570 C655 1444 525 1430 415 1345 C312 1266 330 1132 414 1062 C480 1006 470 902 430 820 C454 785 486 752 520 725Z" fill="url(#trees)"/><path d="M1060 1180 C1194 1120 1336 1188 1370 1325 C1402 1452 1320 1548 1200 1540 C1086 1533 1018 1458 1032 1355 C1040 1288 1018 1230 1060 1180Z" fill="url(#trees)"/></g>
  <g fill="#f0d497" font-family="Georgia,serif" font-size="54" letter-spacing="10" text-anchor="middle" opacity=".92"><text x="780" y="483">UPPER PENINSULA</text><text x="735" y="1115">LOWER</text><text x="735" y="1180">PENINSULA</text><text x="1110" y="230" font-size="46">LAKE SUPERIOR</text><text x="230" y="925" font-size="42">LAKE MICHIGAN</text><text x="1270" y="860" font-size="42">LAKE HURON</text></g>
  <g fill="#ffdb92" stroke="#fff1bd" stroke-width="3" filter="url(#glow)">
    <circle cx="365" cy="390" r="28"/><circle cx="590" cy="500" r="24"/><circle cx="900" cy="430" r="28"/><circle cx="1110" cy="510" r="25"/>
    <circle cx="545" cy="890" r="26"/><circle cx="700" cy="980" r="28"/><circle cx="880" cy="1065" r="26"/><circle cx="990" cy="1220" r="28"/><circle cx="720" cy="1360" r="27"/><circle cx="555" cy="1255" r="24"/><circle cx="1150" cy="1350" r="27"/><circle cx="1250" cy="1465" r="24"/>
  </g>
  <g stroke="#f5c46e" stroke-width="3" fill="none" opacity=".8"><path d="M420 610C530 720 650 750 720 900S860 1120 1030 1200"/><path d="M430 1180c160-90 330-60 475 70 85 75 180 100 300 82"/><path d="M345 430C530 330 760 440 950 402"/></g>
  <g transform="translate(180 1685)" stroke="#d99d4b" fill="none" opacity=".95"><circle r="72"/><path d="M0-92V92M-92 0H92M-64-64 64 64M64-64-64 64"/><text x="0" y="150" fill="#f0c879" font-family="Georgia,serif" font-size="58" text-anchor="middle" stroke="none">MICHIGAN</text></g>
  <rect x="38" y="38" width="1424" height="1924" rx="40" fill="none" stroke="#c9904b" stroke-width="3" opacity=".75"/>
  <rect width="1500" height="2000" fill="#02060a" opacity=".18"/>
</svg>
